<svg version="1" xmlns="http://www.w3.org/2000/svg" width="400" height="400" viewBox="0 0 300.000000 300.000000"><path d="M95 17.5c0 2-.5 2.5-2.5 2.5s-2.5.5-2.5 2.5-.5 2.5-2.5 2.5-2.5.5-2.5 2.5-.5 2.5-2.5 2.5-2.5.5-2.5 2.5-.5 2.5-2.5 2.5c-2.3 0-2.5.3-2.5 5s-.2 5-2.5 5c-2 0-2.5.5-2.5 2.5s.5 2.5 2.5 2.5 2.5.5 2.5 2.5.5 2.5 2.5 2.5 2.5.5 2.5 2.5-.5 2.5-2.5 2.5c-2.3 0-2.5.3-2.5 5v5h-5c-4.7 0-5 .2-5 2.5 0 2-.5 2.5-2.5 2.5s-2.5.5-2.5 2.5-.5 2.5-2.5 2.5-2.5.5-2.5 2.5-.5 2.5-2.5 2.5H50v40h2.5c2 0 2.5.5 2.5 2.5s.5 2.5 2.5 2.5c2.4 0 2.5.2 2.5 7.5s-.1 7.5-2.5 7.5H55v20h2.5c2 0 2.5.5 2.5 2.5s-.5 2.5-2.5 2.5c-2.3 0-2.5.3-2.5 5s-.2 5-2.5 5H50v20h2.5c2.3 0 2.5.3 2.5 5s-.2 5-2.5 5c-2 0-2.5.5-2.5 2.5s-.5 2.5-2.5 2.5-2.5.5-2.5 2.5-.5 2.5-2.5 2.5-2.5.5-2.5 2.5-.5 2.5-2.5 2.5c-2.4 0-2.5.2-2.5 7.5s-.1 7.5-2.5 7.5c-2.3 0-2.5.3-2.5 5s-.2 5-2.5 5-2.5.3-2.5 5-.2 5-2.5 5-2.5.3-2.5 5 .2 5 2.5 5c2 0 2.5.5 2.5 2.5v2.5h35v-2.5c0-2.4.2-2.5 7.5-2.5H75v-5c0-4.7-.2-5-2.5-5-2 0-2.5-.5-2.5-2.5 0-2.4-.2-2.5-7.5-2.5s-7.5-.1-7.5-2.5c0-2 .5-2.5 2.5-2.5s2.5-.5 2.5-2.5.5-2.5 2.5-2.5 2.5-.5 2.5-2.5.5-2.5 2.5-2.5 2.5-.5 2.5-2.5.5-2.5 2.5-2.5 2.5-.5 2.5-2.5c0-2.3.3-2.5 5-2.5h5v-5c0-4.7.2-5 2.5-5 2.4 0 2.5-.2 2.5-7.5s.1-7.5 2.5-7.5c2.3 0 2.5-.3 2.5-5s.2-5 2.5-5c2 0 2.5.5 2.5 2.5s.5 2.5 2.5 2.5c2.3 0 2.5.3 2.5 5s.2 5 2.5 5 2.5.3 2.5 5v5h5c4.7 0 5 .2 5 2.5 0 2-.5 2.5-2.5 2.5-2.3 0-2.5.3-2.5 5s.2 5 2.5 5 2.5.3 2.5 5 .2 5 2.5 5 2.5.3 2.5 5 .2 5 2.5 5h2.5v25h60v-15h-5c-4.7 0-5-.2-5-2.5V260h-20v-2.5c0-2-.5-2.5-2.5-2.5H155v-45h-2.5c-2.3 0-2.5-.3-2.5-5s-.2-5-2.5-5H145v-20h-2.5c-2.3 0-2.5-.3-2.5-5s-.2-5-2.5-5-2.5-.3-2.5-5-.2-5-2.5-5-2.5-.3-2.5-5 .2-5 2.5-5c2.4 0 2.5-.2 2.5-7.5V135h30v-2.5c0-2 .5-2.5 2.5-2.5s2.5-.5 2.5-2.5.5-2.5 2.5-2.5 2.5-.5 2.5-2.5.5-2.5 2.5-2.5c2.3 0 2.5-.3 2.5-5s.2-5 2.5-5 2.5-.3 2.5-5v-5h5c4.7 0 5-.2 5-2.5 0-2 .5-2.5 2.5-2.5s2.5-.5 2.5-2.5V90h35V80h40V70h-40v-2.5c0-2-.5-2.5-2.5-2.5s-2.5.5-2.5 2.5V70h-20v-2.5c0-2-.5-2.5-2.5-2.5s-2.5-.5-2.5-2.5-.5-2.5-2.5-2.5-2.5-.5-2.5-2.5V55h-45v2.5c0 2.3-.3 2.5-5 2.5s-5-.2-5-2.5c0-2-.5-2.5-2.5-2.5s-2.5-.5-2.5-2.5-.5-2.5-2.5-2.5c-2.3 0-2.5-.3-2.5-5s-.2-5-2.5-5c-2.4 0-2.5-.2-2.5-7.5s-.1-7.5-2.5-7.5c-2.3 0-2.5-.3-2.5-5v-5H95v2.5zm100 45V65h-40v-5h40v2.5zm-50 5c0 2-.5 2.5-2.5 2.5s-2.5-.5-2.5-2.5.5-2.5 2.5-2.5 2.5.5 2.5 2.5zm25 25c0 2-.5 2.5-2.5 2.5s-2.5.5-2.5 2.5-.5 2.5-2.5 2.5c-2.3 0-2.5-.3-2.5-5v-5h5c4.7 0 5 .2 5 2.5z"/></svg>